<?xml version="1.0" encoding="UTF-8"?>
<svg width="351px" height="513px" viewBox="0 0 351 513" version="1.1" xmlns="http://www.w3.org/2000/svg" xmlns:xlink="http://www.w3.org/1999/xlink">
    <title>swipe</title>
    <g id="Page-1" stroke="none" stroke-width="1" fill="none" fill-rule="evenodd">
        <g id="swipe" fill-rule="nonzero">
            <g id="Group" transform="translate(10.000000, 52.000000)">
                <path d="M109.506,380.001 L310.83,380.001 C310.83,345.375 330.005,310.75 330.005,276.125 C330.005,244 330.005,223.875 330.005,191.751 C330.005,148.703 283.687,137.096 269.875,151.504 C260.694,129.823 229.622,123.165 214.586,134.88 C203.349,112.098 167.901,109.454 159.499,124.633 L157.441,30.003 C157.082,13.507 144.498,0.003 128.68,0.003 C112.862,0.003 99.919,13.503 99.919,30.003 L99.919,240.751 C66.134,223.501 74.21,198.386 37.696,190.512 C14.429,185.494 -6.473,205.728 1.88,218.356 C7.792,227.292 19.7,237.901 31.022,268.983 C53.685,331.193 109.506,317.723 109.506,380.001 L109.506,380.001 Z" id="Path" fill="#FFDCD5"></path>
                <polygon id="Path" fill="#6F99A1" points="310.829 380.001 109.506 380.001 99.554 380.001 99.554 450.002 320.781 450.002 320.781 380.001"></polygon>
            </g>
            <g id="Group" fill="#000000">
                <path d="M350.004,328.125 L350.004,243.751 C350.004,219.635 337.268,200.105 315.934,191.508 C304.449,186.879 292.561,186.439 283.246,189.843 C279,184.443 273.398,179.919 266.667,176.626 C253.842,170.35 239.351,169.491 227.779,173.825 C221.751,166.704 213.311,161.401 203.149,158.773 C194.641,156.574 186.286,156.585 179.106,158.495 L177.438,81.787 C176.953,59.479 159.928,42.005 138.679,42.005 C117.306,42.005 99.918,59.949 99.918,82.005 L99.918,273.49 C95.888,269.487 92.897,265.26 89.818,260.907 C82.172,250.1 73.507,237.85 49.803,232.738 C29.728,228.411 12.437,238.359 4.867,249.437 C-1.119,258.199 -1.616,268.082 3.538,275.875 C5.059,278.174 6.839,280.462 8.724,282.885 C14.896,290.82 23.348,301.686 31.625,324.407 C43.155,356.057 63.069,370.338 79.071,381.813 C94.506,392.882 106.164,401.253 108.892,422.037 C103.679,422.379 99.553,426.704 99.553,432.004 L99.553,502.004 C99.553,507.527 104.031,512.004 109.553,512.004 L330.78,512.004 C336.302,512.004 340.78,507.527 340.78,502.004 L340.78,432.004 C340.78,426.682 336.62,422.344 331.376,422.034 C332.706,409.29 336.293,396.314 340.052,382.735 C344.945,365.065 350.004,346.797 350.004,328.125 Z M320.781,492.002 L119.555,492.002 L119.555,442.002 L175.164,442.002 C180.686,442.002 185.164,437.525 185.164,432.002 C185.164,426.479 180.686,422.002 175.164,422.002 L129.015,422.002 C125.891,390.797 108.045,377.978 90.728,365.559 C75.54,354.666 59.833,343.404 50.418,317.559 C41.065,291.885 31.104,279.079 24.512,270.604 C22.798,268.401 21.318,266.498 20.221,264.839 C19.43,263.644 21.18,261.015 21.382,260.719 C25.322,254.951 35.146,250.035 45.587,252.288 C61.678,255.758 66.377,262.401 73.491,272.457 C79.166,280.479 86.079,290.25 99.918,298.626 L99.918,302.752 C99.918,308.275 104.396,312.752 109.918,312.752 C115.44,312.752 119.918,308.275 119.918,302.752 L119.918,82.003 C119.918,70.975 128.335,62.003 138.68,62.003 C148.784,62.003 157.2,71.072 157.442,82.22 L160.318,214.469 C160.437,219.917 164.889,224.252 170.312,224.252 C170.385,224.252 170.459,224.251 170.534,224.25 C176.055,224.13 180.434,219.557 180.314,214.035 L179.573,179.957 C182.813,177.333 190.129,176.062 198.141,178.135 C202.804,179.341 218.017,184.648 218.017,202.313 C218.017,207.836 222.495,212.313 228.017,212.313 C233.539,212.313 238.017,207.836 238.017,202.313 C238.017,198.725 237.617,195.251 236.846,191.929 C243.043,190.368 251.049,191.249 257.876,194.589 C263.331,197.258 272.482,203.687 272.482,216.75 C272.482,222.273 276.96,226.75 282.482,226.75 C288.004,226.75 292.482,222.273 292.482,216.75 C292.482,213.813 292.202,210.941 291.655,208.158 C295.917,207.149 302.109,207.498 308.458,210.057 C314.937,212.667 330.004,221.177 330.004,243.75 L330.004,328.124 C330.004,344.078 325.524,360.261 320.779,377.395 C316.765,391.893 312.646,406.801 311.295,422.001 L265.164,422.001 C259.642,422.001 255.164,426.478 255.164,432.001 C255.164,437.524 259.642,442.001 265.164,442.001 L320.781,442.001 L320.781,492.002 Z" id="Shape"></path>
                <path d="M220.168,422.001 L220.16,422.001 C214.638,422.001 210.164,426.478 210.164,432.001 C210.164,437.524 214.645,442.001 220.168,442.001 C225.691,442.001 230.168,437.524 230.168,432.001 C230.168,426.478 225.69,422.001 220.168,422.001 L220.168,422.001 Z" id="Path"></path>
                <path d="M206.848,55.931 L293.214,55.931 L274.355,74.79 C270.45,78.695 270.45,85.027 274.355,88.933 C276.308,90.886 278.867,91.862 281.426,91.862 C283.985,91.862 286.544,90.886 288.497,88.933 L324.428,53.002 C326.303,51.127 327.357,48.583 327.357,45.931 C327.357,43.279 326.303,40.735 324.428,38.86 L288.497,2.93 C284.591,-0.975 278.261,-0.976 274.354,2.93 C270.449,6.835 270.449,13.167 274.354,17.072 L293.213,35.931 L206.847,35.931 C201.325,35.931 196.847,40.408 196.847,45.931 C196.847,51.454 201.325,55.931 206.848,55.931 Z" id="Path"></path>
            </g>
        </g>
    </g>
</svg>