<?xml version="1.0" encoding="UTF-8"?>
<svg width="300px" height="336px" viewBox="0 0 300 336" version="1.1" xmlns="http://www.w3.org/2000/svg" xmlns:xlink="http://www.w3.org/1999/xlink">
    <title>logo</title>
    <defs>
        <circle id="path-1" cx="150" cy="150" r="150"></circle>
    </defs>
    <g id="Page-1" stroke="none" stroke-width="1" fill="none" fill-rule="evenodd">
        <g id="logo">
            <g id="globe">
                <mask id="mask-2" fill="white">
                    <use xlink:href="#path-1"></use>
                </mask>
                <use id="Oval" fill="#505CDD" xlink:href="#path-1"></use>
                <path d="M44.5775411,32.804813 C55.1573304,22.2081424 67.2004297,13.1815393 80.339945,6 L99.1209575,20.1231698 C100.776691,21.3658545 102.502011,22.513013 104.288497,23.5590476 C110.10246,26.9725283 115.106883,31.606418 118.95665,37.1411548 L129.818415,52.8045231 C133.098212,57.50891 132.939382,63.7991074 129.426341,68.3319724 L124.388839,74.8665441 C122.722452,77.0181104 120.044285,78.1305147 117.343918,77.7927253 L111.627474,77.0615067 C101.824656,75.8002368 92.2215562,80.5411347 87.2620168,89.0903462 C85.6391968,91.7729715 82.5674038,93.2226251 79.4649659,92.7699636 L66.3905948,91.1095289 C56.9019793,89.8725948 47.5299841,94.1086678 42.1891552,102.048402 C37.0837891,109.583357 36.9321226,119.428336 41.802962,127.116979 L50.5200806,140.881401 C56.5898607,150.390381 68.9467449,153.640516 78.9095273,148.348456 L87.8834546,143.540318 C91.787496,141.463025 96.4933129,141.57727 100.291953,143.841562 L117.324314,154.061632 C118.644135,154.854932 120.163135,155.254633 121.702477,155.213677 C128.011606,155.037897 134.215528,158.355499 138.30813,164.060834 L146.640363,175.676035 C147.287939,176.577806 147.97995,177.462587 148.696792,178.306853 L159.598418,191.131604 C159.922934,191.50679 160.061186,192.008194 159.97481,192.496676 C159.868595,192.968523 159.59014,193.38376 159.193928,193.661137 L142.819599,206.234959 C137.790098,210.082587 134.088891,215.405928 132.233593,221.460511 L126.730176,239.316882 C126.447124,240.239029 125.983301,241.095591 125.365758,241.836613 L120.007409,248.279047 C115.49597,253.61545 112.718205,260.200162 112.04438,267.155464 C111.892519,268.848278 110.815869,270.317856 109.247583,270.972961 C109.118582,271.029788 108.968111,271.002802 108.865311,270.907615 C108.793437,270.809086 108.748401,270.693569 108.734619,270.572392 L103.715415,240.425145 C102.980694,236.042093 101.190081,231.903767 98.4982128,228.367554 L80.0099492,204.124293 C78.6467324,202.341229 77.639104,200.312661 77.0419467,198.14908 L70.9399637,176.134108 C68.3766594,166.980094 61.2043113,159.838494 52.0393685,157.314542 L50.7102366,156.95122 C48.6351658,156.383925 46.7304714,155.317385 45.1623853,153.844684 L33.7785079,143.131254 C32.2500861,141.693246 30.9366675,140.04267 29.8786756,138.230325 C23.8016351,127.786172 11.9369031,122.143133 0,124.019592 C4.19787559,89.4724698 19.899756,57.3432065 44.5775411,32.804813 Z" id="Path" fill="#1F2155" fill-rule="nonzero" mask="url(#mask-2)"></path>
                <path d="M296.08588,178.769902 C295.745655,178.834553 295.403054,178.88902 295.068456,178.933138 L290.712619,179.513886 C277.471887,181.229319 266.375546,190.359789 262.142534,203.022385 L261.231826,205.491314 C258.757025,212.69088 252.310587,217.769389 244.757295,218.509098 L225.761451,220.171197 C223.630525,220.444815 221.652818,219.01819 221.240182,216.909769 L219.853071,209.623627 C217.96801,199.197618 211.391169,190.218527 202.019494,185.276176 C200.174914,184.281412 198.979998,182.399367 198.864445,180.306838 L198.212209,172.851748 C197.899126,169.961513 198.850768,167.077039 200.822267,164.940531 L230.076742,134.085641 C239.696849,123.915364 242.523551,109.078771 237.316963,96.0836776 C231.929024,82.6936901 219.160671,73.7328436 204.736481,73.2186522 L201.483014,73.1054561 C198.69884,73.0088778 196.048041,71.8890624 194.037865,69.960294 C192.689463,68.6759988 192.279097,66.6900205 193.00805,64.9764777 L198.669427,53.0099409 C205.530279,38.5195307 213.919425,24.8034796 223.694078,12.0952371 C223.803679,11.9529733 223.904431,11.8041071 223.995765,11.6494806 L227.852523,5.13518445 C231.186407,7.56453826 234.452062,10.1161447 237.649488,12.7900036 C273.654496,42.8355305 296.14298,86.036622 300.102224,132.763688 C301.443155,147.978767 300.816819,163.30324 298.238704,178.358142 L296.08588,178.769902 Z" id="Path" fill="#1F2155" fill-rule="nonzero" mask="url(#mask-2)"></path>
            </g>
            <g id="bandeau" transform="translate(53.000000, 264.000000)">
                <rect id="Rectangle" fill="#1F2155" x="0" y="0" width="194" height="72" rx="5"></rect>
                <text id="Quiz" font-family="Ubuntu-Medium, Ubuntu" font-size="55" font-weight="400" fill="#FFFFFF">
                    <tspan x="39" y="57">Quiz</tspan>
                </text>
            </g>
        </g>
    </g>
</svg>