<?xml version="1.0" encoding="UTF-8"?>
<svg width="300px" height="295px" viewBox="0 0 300 295" version="1.1" xmlns="http://www.w3.org/2000/svg" xmlns:xlink="http://www.w3.org/1999/xlink">
    <title>github</title>
    <g id="Page-1" stroke="none" stroke-width="1" fill="none" fill-rule="evenodd">
        <g id="github" fill-rule="nonzero">
            <ellipse id="Oval" fill="#FFFFFF" cx="150" cy="148.3" rx="150" ry="146.3"></ellipse>
            <path d="M150,0 C67.125,0 0,67.1252189 0,150.000489 C0,216.375706 42.9375,272.438389 102.5625,292.313453 C110.0625,293.625958 112.875,289.125943 112.875,285.18843 C112.875,281.625919 112.6875,269.81338 112.6875,257.250839 C75,264.188362 65.25,248.063309 62.25,239.625782 C60.5625,235.313267 53.25,222.000724 46.875,218.438212 C41.625,215.625703 34.125,208.688181 46.6875,208.50068 C58.5,208.313179 66.9375,219.375715 69.75,223.87573 C83.25,246.563304 104.8125,240.188283 113.4375,236.250771 C114.75,226.500739 118.6875,219.938217 123,216.188205 C89.625,212.438193 54.75,199.500651 54.75,142.125464 C54.75,125.81291 60.5625,112.312866 70.125,101.812832 C68.625,98.0628198 63.375,82.6877697 71.625,62.0627024 C71.625,62.0627024 84.1875,58.1251896 112.875,77.4377526 C124.875,74.0627416 137.625,72.3752361 150.375,72.3752361 C163.125,72.3752361 175.875,74.0627416 187.875,77.4377526 C216.5625,57.937689 229.125,62.0627024 229.125,62.0627024 C237.375,82.6877697 232.125,98.0628198 230.625,101.812832 C240.1875,112.312866 246,125.62541 246,142.125464 C246,199.688151 210.9375,212.438193 177.5625,216.188205 C183,220.87572 187.6875,229.87575 187.6875,243.938296 C187.6875,264.000861 187.5,280.125914 187.5,285.18843 C187.5,289.125943 190.3125,293.813458 197.8125,292.313453 C257.0625,272.438389 300,216.188205 300,150.000489 C300,67.1252189 232.875,0 150,0 Z" id="Path" fill="#000000"></path>
        </g>
    </g>
</svg>