<?xml version="1.0" encoding="UTF-8"?>
<svg width="300px" height="293px" viewBox="0 0 300 293" version="1.1" xmlns="http://www.w3.org/2000/svg" xmlns:xlink="http://www.w3.org/1999/xlink">
    <title>mail</title>
    <g id="Page-1" stroke="none" stroke-width="1" fill="none" fill-rule="evenodd">
        <g id="mail">
            <ellipse id="Oval" fill="#000000" cx="150" cy="146.3" rx="150" ry="146.3"></ellipse>
            <path d="M218.49805,83 L82.5019534,83 C74.5155665,83 68,89.5084767 68,97.5019534 L68,194.181643 C68,202.14805 74.4865626,208.683596 82.5019534,208.683596 L218.49805,208.683596 C226.464456,208.683596 233,202.197034 233,194.181643 L233,97.5019534 C233,89.535547 226.513441,83 218.49805,83 Z M216.495491,92.667969 L150.807443,158.35634 L84.5512406,92.667969 L216.495491,92.667969 Z M77.667969,192.179729 L77.667969,99.4577836 L124.228585,145.619113 L77.667969,192.179729 Z M84.5041898,199.015628 L131.094132,152.425685 L147.419142,168.61051 C149.308908,170.484162 152.358508,170.478039 154.240539,168.595685 L170.158205,152.678019 L216.495814,199.015628 L84.5041898,199.015628 Z M223.332035,192.179407 L176.994426,145.841798 L223.332035,99.5038676 L223.332035,192.179407 Z" id="Shape" fill="#FFFFFF" fill-rule="nonzero"></path>
        </g>
    </g>
</svg>