<?xml version="1.0" encoding="UTF-8"?>
<svg width="300px" height="293px" viewBox="0 0 300 293" version="1.1" xmlns="http://www.w3.org/2000/svg" xmlns:xlink="http://www.w3.org/1999/xlink">
    <title>linkedin</title>
    <g id="Page-1" stroke="none" stroke-width="1" fill="none" fill-rule="evenodd">
        <g id="linkedin">
            <ellipse id="Oval" fill="#000000" cx="150" cy="146.3" rx="150" ry="146.3"></ellipse>
            <g id="in" transform="translate(75.000000, 71.000000)" fill="#FFFFFF" fill-rule="nonzero">
                <path d="M149.9625,150 L149.9625,149.99375 L150,149.99375 L150,94.98125 C150,68.06875 144.20625,47.3375 112.74375,47.3375 C97.61875,47.3375 87.46875,55.6375 83.325,63.50625 L82.8875,63.50625 L82.8875,49.85 L53.05625,49.85 L53.05625,149.99375 L84.11875,149.99375 L84.11875,100.40625 C84.11875,87.35 86.59375,74.725 102.7625,74.725 C118.69375,74.725 118.93125,89.625 118.93125,101.24375 L118.93125,150 L149.9625,150 Z" id="Path"></path>
                <polygon id="Path" points="2.475 49.85625 33.575 49.85625 33.575 150 2.475 150"></polygon>
                <path d="M18.0125,0 C8.06875,0 4.61852778e-14,8.06875 4.61852778e-14,18.0125 C4.61852778e-14,27.95625 8.06875,36.19375 18.0125,36.19375 C27.95625,36.19375 36.025,27.95625 36.025,18.0125 C36.01875,8.06875 27.95,0 18.0125,0 Z" id="Path"></path>
            </g>
        </g>
    </g>
</svg>