<?xml version="1.0" encoding="UTF-8"?>
<svg width="25px" height="52px" viewBox="0 0 25 52" version="1.1" xmlns="http://www.w3.org/2000/svg" xmlns:xlink="http://www.w3.org/1999/xlink">
    <title>blocks</title>
    <g id="Page-1" stroke="none" stroke-width="1" fill="none" fill-rule="evenodd" stroke-dasharray="2" stroke-linecap="square">
        <g id="blocks" transform="translate(1.000000, 1.000000)" fill="#6F99A1" stroke="#000000">
            <path d="M13.6363636,0 L22.7272727,0 L22.7272727,9.09090909 L13.6363636,9.09090909 L13.6363636,0 Z" id="Rectangle"></path>
            <path d="M13.6363636,13.6363636 L22.7272727,13.6363636 L22.7272727,22.7272727 L13.6363636,22.7272727 L13.6363636,13.6363636 Z" id="Rectangle"></path>
            <path d="M0,13.6363636 L9.09090909,13.6363636 L9.09090909,22.7272727 L0,22.7272727 L0,13.6363636 Z" id="Rectangle"></path>
            <path d="M13.6363636,27.2727273 L22.7272727,27.2727273 L22.7272727,36.3636364 L13.6363636,36.3636364 L13.6363636,27.2727273 Z" id="Rectangle"></path>
            <path d="M0,27.2727273 L9.09090909,27.2727273 L9.09090909,36.3636364 L0,36.3636364 L0,27.2727273 Z" id="Rectangle"></path>
            <path d="M13.6363636,40.9090909 L22.7272727,40.9090909 L22.7272727,50 L13.6363636,50 L13.6363636,40.9090909 Z" id="Rectangle"></path>
        </g>
    </g>
</svg>