<?xml version="1.0" encoding="UTF-8"?>
<svg width="153px" height="154px" viewBox="0 0 153 154" version="1.1" xmlns="http://www.w3.org/2000/svg" xmlns:xlink="http://www.w3.org/1999/xlink">
    <title>Group 2</title>
    <defs>
        <rect id="path-1" x="54" y="11" width="50" height="50"></rect>
        <mask id="mask-2" maskContentUnits="userSpaceOnUse" maskUnits="objectBoundingBox" x="0" y="0" width="50" height="50" fill="white">
            <use xlink:href="#path-1"></use>
        </mask>
        <rect id="path-3" x="92" y="55" width="50" height="50"></rect>
        <mask id="mask-4" maskContentUnits="userSpaceOnUse" maskUnits="objectBoundingBox" x="0" y="0" width="50" height="50" fill="white">
            <use xlink:href="#path-3"></use>
        </mask>
        <rect id="path-5" x="11" y="49" width="50" height="50"></rect>
        <mask id="mask-6" maskContentUnits="userSpaceOnUse" maskUnits="objectBoundingBox" x="0" y="0" width="50" height="50" fill="white">
            <use xlink:href="#path-5"></use>
        </mask>
        <rect id="path-7" x="49" y="93" width="50" height="50"></rect>
        <mask id="mask-8" maskContentUnits="userSpaceOnUse" maskUnits="objectBoundingBox" x="0" y="0" width="50" height="50" fill="white">
            <use xlink:href="#path-7"></use>
        </mask>
    </defs>
    <g id="Page-1" stroke="none" stroke-width="1" fill="none" fill-rule="evenodd" stroke-dasharray="10" stroke-linecap="square">
        <g id="Group-2" transform="translate(76.500000, 77.000000) scale(1, -1) translate(-76.500000, -77.000000) " fill="#6F99A1" stroke="#000000" stroke-width="8">
            <use id="Rectangle" mask="url(#mask-2)" transform="translate(79.000000, 36.000000) rotate(50.000000) translate(-79.000000, -36.000000) " xlink:href="#path-1"></use>
            <use id="Rectangle" mask="url(#mask-4)" transform="translate(117.000000, 80.000000) rotate(50.000000) translate(-117.000000, -80.000000) " xlink:href="#path-3"></use>
            <use id="Rectangle" mask="url(#mask-6)" transform="translate(36.000000, 74.000000) rotate(50.000000) translate(-36.000000, -74.000000) " xlink:href="#path-5"></use>
            <use id="Rectangle" mask="url(#mask-8)" transform="translate(74.000000, 118.000000) rotate(50.000000) translate(-74.000000, -118.000000) " xlink:href="#path-7"></use>
        </g>
    </g>
</svg>