<?xml version="1.0" encoding="UTF-8"?>
<svg width="26px" height="52px" viewBox="0 0 26 52" version="1.1" xmlns="http://www.w3.org/2000/svg" xmlns:xlink="http://www.w3.org/1999/xlink">
    <title>polygons</title>
    <g id="Page-1" stroke="none" stroke-width="1" fill="none" fill-rule="evenodd" stroke-dasharray="3">
        <g id="polygons" transform="translate(1.000000, 2.000000)" fill="#55E6C1" fill-rule="nonzero" stroke="#000000" stroke-width="2">
            <path d="M6.25,0 L12.1941032,4.31864379 L9.92365783,11.3063562 L2.57634217,11.3063562 L0.305896773,4.31864379 L6.25,0 Z" id="Polygon"></path>
            <path d="M17.1875,9.6875 L23.1316032,14.0061438 L20.8611578,20.9938562 L13.5138422,20.9938562 L11.2433968,14.0061438 L17.1875,9.6875 Z" id="Polygon"></path>
            <path d="M6.25,18.75 L12.1941032,23.0686438 L9.92365783,30.0563562 L2.57634217,30.0563562 L0.305896773,23.0686438 L6.25,18.75 Z" id="Polygon"></path>
            <path d="M17.1875,28.4375 L23.1316032,32.7561438 L20.8611578,39.7438562 L13.5138422,39.7438562 L11.2433968,32.7561438 L17.1875,28.4375 Z" id="Polygon"></path>
            <path d="M6.25,37.5 L12.1941032,41.8186438 L9.92365783,48.8063562 L2.57634217,48.8063562 L0.305896773,41.8186438 L6.25,37.5 Z" id="Polygon"></path>
        </g>
    </g>
</svg>