<?xml version="1.0" encoding="UTF-8"?>
<svg width="11px" height="116px" viewBox="0 0 11 116" version="1.1" xmlns="http://www.w3.org/2000/svg" xmlns:xlink="http://www.w3.org/1999/xlink">
    <title>blocks-line</title>
    <g id="Page-1" stroke="none" stroke-width="1" fill="none" fill-rule="evenodd" stroke-dasharray="2" stroke-linecap="square">
        <g id="blocks-line" transform="translate(1.000000, 0.000000)" fill="#6F99A1" stroke="#000000">
            <path d="M-8.52651283e-14,60.9063636 L9.09090909,60.9063636 L9.09090909,69.9972727 L-8.52651283e-14,69.9972727 L-8.52651283e-14,60.9063636 Z" id="Rectangle"></path>
            <path d="M-8.52651283e-14,45.9054545 L9.09090909,45.9054545 L9.09090909,54.9963636 L-8.52651283e-14,54.9963636 L-8.52651283e-14,45.9054545 Z" id="Rectangle"></path>
            <path d="M-8.52651283e-14,30.9045455 L9.09090909,30.9045455 L9.09090909,39.9954545 L-8.52651283e-14,39.9954545 L-8.52651283e-14,30.9045455 Z" id="Rectangle"></path>
            <path d="M-1.13686838e-13,15.9090909 L9.09090909,15.9090909 L9.09090909,25 L-1.13686838e-13,25 L-1.13686838e-13,15.9090909 Z" id="Rectangle"></path>
            <path d="M-1.13686838e-13,0.909090909 L9.09090909,0.909090909 L9.09090909,10 L-1.13686838e-13,10 L-1.13686838e-13,0.909090909 Z" id="Rectangle"></path>
            <path d="M-8.52651283e-14,75.9072727 L9.09090909,75.9072727 L9.09090909,84.9981818 L-8.52651283e-14,84.9981818 L-8.52651283e-14,75.9072727 Z" id="Rectangle"></path>
            <path d="M-8.52651283e-14,90.9081818 L9.09090909,90.9081818 L9.09090909,99.9990909 L-8.52651283e-14,99.9990909 L-8.52651283e-14,90.9081818 Z" id="Rectangle"></path>
            <path d="M-8.52651283e-14,105.909091 L9.09090909,105.909091 L9.09090909,115 L-8.52651283e-14,115 L-8.52651283e-14,105.909091 Z" id="Rectangle"></path>
        </g>
    </g>
</svg>