<?xml version="1.0" encoding="UTF-8"?>
<svg width="14px" height="152px" viewBox="0 0 14 152" version="1.1" xmlns="http://www.w3.org/2000/svg" xmlns:xlink="http://www.w3.org/1999/xlink">
    <title>blocks-line</title>
    <g id="Page-1" stroke="none" stroke-width="1" fill="none" fill-rule="evenodd" stroke-dasharray="3">
        <g id="blocks-line" transform="translate(7.000000, 75.521739) rotate(90.000000) translate(-7.000000, -75.521739) translate(-68.000000, 69.000000)" fill="#55E6C1" fill-rule="nonzero" stroke="#000000" stroke-width="2">
            <path d="M59.4699605,0.652173913 L71.327668,0.652173913 L71.327668,12.5098814 L59.4699605,12.5098814 L59.4699605,0.652173913 Z" id="Rectangle"></path>
            <path d="M79.0363637,0.652173913 L90.8940712,0.652173913 L90.8940712,12.5098814 L79.0363637,12.5098814 L79.0363637,0.652173913 Z" id="Rectangle"></path>
            <path d="M98.6027667,0.652173913 L110.460474,0.652173913 L110.460474,12.5098813 L98.6027667,12.5098813 L98.6027667,0.652173913 Z" id="Rectangle"></path>
            <path d="M118.162055,0.652173913 L130.019763,0.652173913 L130.019763,12.5098814 L118.162055,12.5098814 L118.162055,0.652173913 Z" id="Rectangle"></path>
            <path d="M137.727273,0.652173913 L149.58498,0.652173913 L149.58498,12.5098814 L137.727273,12.5098814 L137.727273,0.652173913 Z" id="Rectangle"></path>
            <path d="M39.9035573,0.652173913 L51.7612649,0.652173913 L51.7612649,12.5098814 L39.9035573,12.5098814 L39.9035573,0.652173913 Z" id="Rectangle"></path>
            <path d="M20.3371542,0.652173913 L32.1948617,0.652173913 L32.1948617,12.5098814 L20.3371542,12.5098814 L20.3371542,0.652173913 Z" id="Rectangle"></path>
            <path d="M0.77075087,0.652173913 L12.6284584,0.652173913 L12.6284584,12.5098813 L0.77075087,12.5098813 L0.77075087,0.652173913 Z" id="Rectangle"></path>
        </g>
    </g>
</svg>